<svg xmlns="http://www.w3.org/2000/svg" fill="none" viewBox="0 0 28 22"><path d="M0 0h28v22h-28z"/><path fill="#666" d="M1 5.34q0-1.28 1.54-1.38l3.98.02a.52.52 0 0 1 .53.38q.61 1.88 1.37 3.26.76 1.37 1.99 3.15.1.23.34.23.19 0 .3-.18l.07-.28.03-4.35q0-.45-.23-.6t-.84-.23q-.48-.07-.48-.55 0-.1.03-.15.56-1.63 3.2-1.63l1.5-.03q1 0 1.67.48.67.47.67 1.5v5.71q.18.13.34.13.4 0 .7-.45 2.93-3.87 3.17-5.18 0-.03.05-.13.19-.37.61-.65.43-.28.75-.38a.56.56 0 0 1 .24-.05h4.13l.26.03q.54 0 .83.47.1.15.15.33.04.18.05.35l.01.2v.18q-.18 1.03-.94 2.2t-1.93 2.53q-1.18 1.36-1.47 1.78-.24.3-.24.56 0 .2.21.45l3.9 4.63q.31.4.31.88 0 .58-.48.95-.48.38-1.14.43l-.46.03h-4.05a1 1 0 0 0-.1 0 1 1 0 0 1-.1.02q-.6 0-1.1-.48-.19-.2-2.5-2.97a1.4 1.4 0 0 0-.38-.32l-.28 1.15-.25 1.09-.08.42q-.27.88-1.12 1.06l-.37.02h-2.61q-2.22 0-4.41-1.9t-3.96-4.95q-1.76-3.03-3.28-7.05a1.9 1.9 0 0 1-.13-.73m16.01 6.51q-.56 0-1.01-.29-.45-.29-.45-.79v-5.78q0-.5-.27-.72-.27-.21-.93-.21l-1.52.05q-1.15 0-1.73.37 1.17.53 1.17 1.71v4.43a1.5 1.5 0 0 1-.53 1.04 1.6 1.6 0 0 1-1.07.42q-.8 0-1.22-.73-2.08-2.97-3.1-5.63l-.23-.66-3.55-.02q-.34 0-.38.04-.04.03-.04.2 0 .23.05.49l.56 1.4q2.24 5.46 4.86 8.6 2.63 3.15 5.16 3.15h2.66q.16 0 .24-.09.08-.09.13-.34l.06-.25.5-2.21q.22-.46.38-.6a.98.98 0 0 1 .69-.28q.64 0 1.3.73l2.27 2.71q.21.33.45.33h4.4q.8 0 .8-.38a.47.47 0 0 0-.08-.25l-3.87-4.55q-.45-.53-.45-1.13 0-.6.43-1.16.34-.5 1.34-1.67a38 38 0 0 0 1.75-2.19q.75-1.02.98-1.85l.08-.33a.4.4 0 0 1-.02-.16.6.6 0 0 0-.03-.19h-4.18q-.4.15-.64.46l-.16.47q-.67 1.74-3.5 5.36a1.9 1.9 0 0 1-1.3.5"/></svg>