<svg xmlns="http://www.w3.org/2000/svg" fill="none" viewBox="0 0 28 22"><path d="M0 0h28v22h-28z"/><path fill="#666" d="m17.85 10.8-5.24-3.5a.66.66 0 0 0-1.01.55v6.98a.65.65 0 0 0 1.02.55l5.23-3.5a.66.66 0 0 0 0-1.09m-4.94 2.82v-4.54l3.4 2.27zm12.48-8.57a2.4 2.4 0 0 0-1.45-1.63c-3.72-1.43-9.69-1.41-9.94-1.41s-6.22-.02-9.94 1.4a2.4 2.4 0 0 0-1.45 1.64c-.28 1.07-.61 3.04-.61 6.3s.33 5.22.61 6.3a2.4 2.4 0 0 0 1.45 1.63c3.72 1.43 9.69 1.4 9.94 1.4h.08c.75 0 6.31-.04 9.86-1.4a2.4 2.4 0 0 0 1.45-1.64c.28-1.07.61-3.03.61-6.3s-.33-5.22-.61-6.29m-1.27 12.26a1.09 1.09 0 0 1-.65.75c-3.5 1.34-9.4 1.32-9.47 1.32-.07 0-5.98.02-9.47-1.32a1.09 1.09 0 0 1-.65-.75c-.26-1-.57-2.84-.57-5.96s.3-4.96.57-5.97a1.09 1.09 0 0 1 .65-.74c3.49-1.34 9.4-1.32 9.47-1.32.07 0 5.98-.02 9.47 1.32a1.1 1.1 0 0 1 .65.74c.27 1 .57 2.85.57 5.97s-.3 4.96-.57 5.97"/></svg>