<svg xmlns="http://www.w3.org/2000/svg" fill="none" viewBox="0 0 190 38.002"><path d="M0 0h33v38h-33z"/><path fill="#fdc305" d="M6.01 20.94v-2.29a139 139 0 0 1 19.98-1.34c0 .6 0 1.22-.06 1.84 1.9-.86 3.9-1.48 5.94-1.84a16.77 16.77 0 0 0-6.77-8.28 16.25 16.25 0 0 0-10.3-2.4c-3.6.37-6.98 1.94-9.62 4.47a16.95 16.95 0 0 0-5 9.5zm20.97 3.54c-1.15 1.3-1.38 1.22-1.38 3.49v9.27a16.7 16.7 0 0 0 5.43-6.05 17.1 17.1 0 0 0 1.97-7.95 17.9 17.9 0 0 0-.32-3.13 33 33 0 0 0-5.7 4.37m-20.68 1.5s-3.76-1.45-5.14-1.84a8 8 0 0 0-1.16-.28 17.07 17.07 0 0 0 2.46 8.23 16.63 16.63 0 0 0 6.14 5.91z"/><path fill="#f06351" d="M26.04 17.3a92.5 92.5 0 0 0-1.39-16.64s-.14-1.3-.88-.24a14.6 14.6 0 0 0-1.19 3.98 68.3 68.3 0 0 0-12.65.34c-.78-2.72-2.16-3.98-2.82-3.73-.66.26-.71 3.35-.71 3.35l-.33 14.24a139 139 0 0 1 19.97-1.3"/><path fill="#000" d="M12.29 14.15c0-.1 1 .68 1.4.93.4.24.6.42.6.6 0 .16-.27.34-.62.34-.36 0-.9-.12-1-.28h1.22a8.3 8.3 0 0 1-1.6-1.6m7.4.12-1.07 1.34c0 .06-.17.35.18.3q.61-.09 1.2-.29c.11 0 .08-.19-.1-.17-.18.02-.69.05-1 .11l.84-1.27s.07-.13-.04-.02m-3.11 6.15c.46-.2.84-.56 1.08-1 .28-.67 0-.93-.44-1.02a2.37 2.37 0 0 0-1.72.34c-.39.37-.34.73-.05 1.01q.52.4 1.13.67"/><path fill="#f06351" d="M16.2 21.67c-.12.23-.27.44-.46.61a1.7 1.7 0 0 1-1 .38 2.1 2.1 0 0 1-1.45-.43 2.3 2.3 0 0 1-.52-.45 1.1 1.1 0 0 0-.36-.26s.74 4.15 2.55 4.8 2.12-.76 2.17-1.14a5.76 5.76 0 0 0-.8-3.26c-.03-.32-.04-.12-.14-.25"/><path fill="#000" d="M14.57 22.83a3.4 3.4 0 0 1-1.3-.48 3.4 3.4 0 0 1-1.04-1 .14.14 0 0 1 .08-.2.14.14 0 0 1 .15.04 3.22 3.22 0 0 0 2.09 1.31 2.05 2.05 0 0 0 1.61-1l.14-.2.1.21s.37.77 1 .81c.61.04 1.03-.41 1.59-1.3a.14.14 0 0 1 .1-.04.14.14 0 0 1 .1.05.15.15 0 0 1 .04.2c-.63 1.01-1.25 1.45-1.86 1.41a1.5 1.5 0 0 1-.64-.25 1.55 1.55 0 0 1-.47-.51 2.26 2.26 0 0 1-.74.67c-.3.16-.62.26-.95.28"/><path fill="#f06351" d="M25.99 19.12a59 59 0 0 0-5.02 5.24 31.6 31.6 0 0 1-5.24 4.94c-.22-.53-1.6-1.52-1.6-1.52s-3.1-2.17-5.14-3.86a34 34 0 0 1-3.1-3.03l-1.98-.11a22.38 22.38 0 0 0 11.89 8.89c.85-.14 3.23-1.88 5.02-3.3a58 58 0 0 0 5.88-5.95c.5-.6.88-1.28 1.13-2.02-1.09.4-1.84.72-1.84.72"/><path d="M89 10h101v18h-101z"/><path fill="#111" d="M90.27 26.54a6.87 6.87 0 0 1-1.27-4.3v-6.4a6.95 6.95 0 0 1 1.19-4.38c.87-1 2.2-1.46 4.18-1.46s3.24.46 4.03 1.3a5.42 5.42 0 0 1 1.19 3.78v1.54h-3.87v-1.77a3.7 3.7 0 0 0-.24-1.54 1.1 1.1 0 0 0-.46-.47 1.16 1.16 0 0 0-.65-.15c-.55 0-.94.16-1.1.54a4.9 4.9 0 0 0-.24 1.7v8.22a3.1 3.1 0 0 0 .32 1.62c.16.38.55.54 1.1.54s.87-.16 1.03-.54c.18-.52.26-1.07.24-1.62v-1.84h3.87v1.54a5.78 5.78 0 0 1-1.19 3.84q-1.18 1.39-4.03 1.39c-1.9-.08-3.32-.54-4.1-1.54m13.98-16.3h4.5l3.33 17.53h-3.64l-.63-3.7h-2.6l-.64 3.7h-3.72zm3.24 11.53-.94-6.84-.95 6.84zm7.35-8.61h-2.68v-2.93h9.4v2.85h-2.69v14.69h-4.03zm13.91-2.93h6.96v1.85h-4.5v5.77h3.63v1.77h-3.64v6.46h4.5v1.77h-7.03v-17.62zm9.01 0h1.74l5.14 11.62v-11.62h2.05v17.54h-1.58l-5.21-12v12h-2.14zm11.3 0h6.96v1.85h-4.5v5.77h3.63v1.77h-3.64v6.46h4.5v1.77h-6.95zm9.01 0h3.64a6.45 6.45 0 0 1 4.03 1.08c.87.7 1.26 1.92 1.26 3.54 0 2.23-.7 3.61-2.21 4.07l2.53 8.77h-2.45l-2.37-8.23h-1.98v8.23h-2.53v-17.46zm3.48 7.54a3.52 3.52 0 0 0 2.3-.61q.7-.58.7-2.31a4.8 4.8 0 0 0-.23-1.7 1.97 1.97 0 0 0-.87-.92 3.7 3.7 0 0 0-1.74-.3h-1.1v5.76h.94zm8.61 8.7a7.6 7.6 0 0 1-1.1-4.47v-5.84a12.3 12.3 0 0 1 .4-3.31 3.92 3.92 0 0 1 1.5-2c.88-.51 1.9-.75 2.92-.7 1.66 0 2.84.39 3.55 1.24a5.77 5.77 0 0 1 1.11 3.84v.62h-2.37v-.54q0-.97-.16-1.92a1.53 1.53 0 0 0-.63-1 2.5 2.5 0 0 0-1.5-.39 2.42 2.42 0 0 0-1.58.46 1.73 1.73 0 0 0-.63 1.23 14 14 0 0 0-.16 2.08v6.54a6.8 6.8 0 0 0 .47 2.92c.32.62.95.85 1.9.85a1.96 1.96 0 0 0 1.09-.18c.34-.17.62-.43.8-.74a6.9 6.9 0 0 0 .56-3.08v-1.23h-2.3v-1.77h4.59v8.7h-1.58l-.24-2a3.14 3.14 0 0 1-1.22 1.65 3.3 3.3 0 0 1-2.02.57 4.05 4.05 0 0 1-1.9-.35 3.9 3.9 0 0 1-1.5-1.19m13.52-4.84-3.88-11.31h2.38l2.76 8.46 2.69-8.46h2.37l-3.87 11.3v6.16h-2.37v-6.15z"/></svg>