<svg viewBox="0 0 113 20" xmlns="http://www.w3.org/2000/svg" fill="none"><path d="M10.75 4.73v11.46h-1.55v-5.21h-6.18v5.21h-1.56v-11.46h1.56v5.11h6.18v-5.11h1.55Zm10.68 1.3h-3.7v10.16h-1.55v-10.16h-3.72v-1.3h8.97v1.3Zm13.63-1.3v11.46h-1.36v-8.42a8.56 8.56 0 0 1 .04-.75l-3.93 7.16a.6.6 0 0 1-.56.36h-.23c-.25 0-.43-.12-.56-.36l-4.01-7.2a7 7 0 0 1 .05.79v8.42h-1.36v-11.46h1.14a1 1 0 0 1 .32.04c.07.02.15.1.22.22l3.96 7.06a6.96 6.96 0 0 1 .36.82 9.94 9.94 0 0 1 .36-.83l3.88-7.05c.07-.12.14-.2.21-.22.08-.03.2-.04.33-.04h1.14Zm9.44 10.16v1.3h-6.5v-11.46h1.54v10.16h4.96Zm10.88-2.95-1.8-4.67a9.55 9.55 0 0 1-.34-1.07c-.1.43-.22.8-.34 1.08l-1.8 4.66h4.28Zm3.23 4.25h-1.2a.52.52 0 0 1-.33-.1.64.64 0 0 1-.2-.27l-1.07-2.76h-5.14l-1.07 2.76c-.04.1-.1.19-.19.26s-.2.11-.33.11h-1.2l4.58-11.46h1.57l4.58 11.46Zm6.6-6.66a.64.64 0 0 1-.13.13.29.29 0 0 1-.18.05.49.49 0 0 1-.26-.1 3.65 3.65 0 0 0-.88-.43c-.2-.07-.46-.1-.75-.1-.4 0-.76.06-1.06.2-.3.15-.56.35-.77.62-.2.26-.36.59-.46.96a5 5 0 0 0-.15 1.28c0 .49.05.92.16 1.3.12.39.27.7.48.97.2.25.45.45.74.59.3.13.62.2.98.2.35 0 .64-.04.86-.12.22-.09.4-.18.55-.28l.37-.27c.1-.09.2-.13.3-.13.11 0 .2.05.27.14l.4.52c-.18.21-.38.4-.6.56a3.81 3.81 0 0 1-1.54.61 4.9 4.9 0 0 1-.86.07c-.5 0-.98-.09-1.42-.28a3.29 3.29 0 0 1-1.88-2.12 5.33 5.33 0 0 1-.27-1.76c0-.6.08-1.16.25-1.68.17-.5.41-.95.73-1.32a3.5 3.5 0 0 1 1.2-.87c.47-.2 1.01-.31 1.63-.31a3.55 3.55 0 0 1 2.66 1.06l-.37.5Zm6.39 3.01c-.66.03-1.22.08-1.68.16-.46.08-.84.2-1.13.32-.29.14-.5.3-.63.48s-.2.38-.2.6c0 .22.04.4.11.56.07.15.16.28.28.38.12.1.26.17.42.22a3.06 3.06 0 0 0 1.22 0c.2-.07.4-.14.58-.24a4.36 4.36 0 0 0 1.02-.8v-1.68Zm-4.6-3.3c.45-.44.93-.76 1.45-.98a4.7 4.7 0 0 1 1.72-.32c.45 0 .85.08 1.2.23a2.48 2.48 0 0 1 1.44 1.59c.12.38.18.8.18 1.25v5.18h-.63a.65.65 0 0 1-.32-.06c-.08-.05-.14-.14-.18-.27l-.16-.77c-.21.2-.42.37-.62.53a3.45 3.45 0 0 1-1.36.62 3.69 3.69 0 0 1-1.73-.05 1.94 1.94 0 0 1-1.22-1.06c-.11-.27-.17-.6-.17-.96 0-.32.09-.63.26-.92.18-.3.46-.56.86-.8.4-.22.9-.41 1.54-.55.64-.15 1.42-.24 2.34-.26v-.63c0-.63-.14-1.1-.41-1.43-.27-.32-.67-.48-1.2-.48a2.53 2.53 0 0 0-1.5.43c-.17.1-.32.2-.44.3a.64.64 0 0 1-.37.12.42.42 0 0 1-.25-.07.76.76 0 0 1-.18-.2l-.25-.45Zm13.44.78c-.27-.36-.56-.6-.86-.75a2.51 2.51 0 0 0-1.04-.21c-.76 0-1.34.27-1.74.8-.4.54-.6 1.31-.6 2.3a6 6 0 0 0 .13 1.37c.09.37.22.68.4.93.17.24.39.41.65.52.25.12.54.17.87.17.47 0 .87-.1 1.22-.32.35-.21.68-.51.97-.9v-3.91Zm1.42-5.61v11.78h-.84c-.2 0-.34-.1-.39-.3l-.13-.98c-.34.42-.74.75-1.18 1.01-.44.26-.96.38-1.54.38a2.66 2.66 0 0 1-2.23-1.06 3.76 3.76 0 0 1-.61-1.29 6.68 6.68 0 0 1 .02-3.45c.16-.51.39-.96.69-1.34a3.16 3.16 0 0 1 2.57-1.22 2.9 2.9 0 0 1 2.22.96v-4.5h1.42Zm7.68 6.85c0-.33-.05-.64-.15-.9a1.92 1.92 0 0 0-1.93-1.35c-.68 0-1.22.2-1.62.6-.4.4-.64.94-.74 1.65h4.44Zm1.15 3.8c-.18.2-.39.4-.63.56a4.03 4.03 0 0 1-1.66.6c-.3.06-.6.08-.89.08a4.2 4.2 0 0 1-1.55-.28 3.51 3.51 0 0 1-2.02-2.19 5.51 5.51 0 0 1-.04-3.44c.18-.49.43-.91.76-1.27.32-.36.72-.65 1.19-.85a3.87 3.87 0 0 1 2.93-.06 3.1 3.1 0 0 1 1.78 1.84c.17.45.26.96.26 1.53 0 .23-.03.38-.08.45-.04.08-.13.11-.27.11h-5.41c.01.52.08.96.2 1.34a2.35 2.35 0 0 0 1.33 1.52c.31.12.66.18 1.04.18a3.1 3.1 0 0 0 1.6-.39c.18-.1.34-.18.46-.26a.63.63 0 0 1 .33-.13c.11 0 .2.05.27.14l.4.52Zm1.88 1.13v-8.1h.85c.2 0 .33.1.38.3l.1.83c.3-.37.64-.67 1-.9.38-.24.81-.36 1.3-.36.55 0 .99.15 1.33.46.34.3.58.71.73 1.23a2.65 2.65 0 0 1 1.8-1.6 3.31 3.31 0 0 1 1.93.12c.34.13.62.33.85.59.23.26.41.58.53.97a4 4 0 0 1 .19 1.3v5.16h-1.43v-5.16c0-.63-.14-1.11-.42-1.44-.28-.33-.68-.5-1.2-.5a1.8 1.8 0 0 0-1.22.5c-.16.15-.3.36-.39.6a2.4 2.4 0 0 0-.13.84v5.16h-1.44v-5.16c0-.65-.13-1.13-.39-1.45-.26-.32-.64-.48-1.14-.48-.35 0-.68.1-.98.28-.3.2-.57.45-.82.77v6.04h-1.43Zm19.94-8.1-4.52 10.5c-.05.1-.1.19-.18.25a.5.5 0 0 1-.33.1h-1.06l1.48-3.22-3.34-7.63h1.23c.12 0 .22.03.29.1.07.05.12.12.15.2l2.17 5.1c.08.22.16.46.21.7.08-.25.16-.49.25-.71l2.1-5.1a.44.44 0 0 1 .16-.2.44.44 0 0 1 .26-.1h1.13Z" fill="#444"/></svg>